# xmcd CD database file
#
# Track frame offsets:
#	150
#	17341
#	38864
#	57474
#	73782
#	93824
#	115984
#	136998
#	153775
#	167309
#	194259
#	212062
#	226605
#	247440
#	262823
#	285792
#	304974
#
# Disc length: 4294 seconds
#
# Revision: 0
# Processed by: cddbd v1.5.2PL0 Copyright (c) Steve Scherf et al.
# Submitted via: CDex 1.51
#
DISCID=dc10c411
DTITLE=Various Artist - Ultimate Jazz Instrumentals
DYEAR=1992
DGENRE=Jazz
TTITLE0=Noel Pointer - East St. Louie
TTITLE1=Earl Klugh - Doc
TTITLE2=Kenny G. - Midnight Motion
TTITLE3=David Foster - St. Elmo's Fire
TTITLE4=Shakatak - Nightbird
TTITLE5=David Benoit - I Just Can't Stop Loving You
TTITLE6=David Benoit - Kei's Song
TTITLE7=Kenny G. - Song for MIco
TTITLE8=Leroy Hutson - Cool Music
TTITLE9=Ronnie Laws - Friends and Strangers
TTITLE10=Spyro Gyra - Mornin' Dance
TTITLE11=David Foster - Saje
TTITLE12=David Benoit - Stages
TTITLE13=Pat Metheny - This Is Not American
TTITLE14=Paul Hardcastle - Rainforest
TTITLE15=Stanley Clarke and George Duke - Together Again
TTITLE16=Alphonse Mouzon - When Linda Smiles
EXTD=YEAR: 1992
EXTT0=
EXTT1=
EXTT2=
EXTT3=
EXTT4=
EXTT5=
EXTT6=
EXTT7=
EXTT8=
EXTT9=
EXTT10=
EXTT11=
EXTT12=
EXTT13=
EXTT14=
EXTT15=
EXTT16=
PLAYORDER=
